<?xml version="1.0" encoding="utf-8"?>
<!-- Generator: Adobe Illustrator 16.0.0, SVG Export Plug-In . SVG Version: 6.00 Build 0)  -->
<!DOCTYPE svg PUBLIC "-//W3C//DTD SVG 1.1//EN" "http://www.w3.org/Graphics/SVG/1.1/DTD/svg11.dtd">
<svg version="1.1" id="Layer_1" xmlns="http://www.w3.org/2000/svg" xmlns:xlink="http://www.w3.org/1999/xlink" x="0px" y="0px"
	 width="80px" height="80px" viewBox="0 0 80 80" enable-background="new 0 0 80 80" xml:space="preserve">
<circle fill="#B84598" stroke="#000000" stroke-width="2.3624" stroke-miterlimit="10" cx="39.991" cy="40.727" r="36.223"/>
<g>
	<path fill-rule="evenodd" clip-rule="evenodd" fill="none" d="M56.521,16.287c0.003-4.761,3.896-8.656,8.668-8.641
		c4.902,0.017,8.69,4.041,8.635,8.754c-0.058,4.717-3.946,8.58-8.742,8.549C60.394,24.912,56.521,21.023,56.521,16.287z
		 M73.423,16.312c0.015-4.484-3.603-8.192-8.115-8.265c-4.596-0.07-8.318,3.619-8.383,8.122c-0.068,4.629,3.668,8.33,8.158,8.379
		C69.675,24.595,73.425,20.861,73.423,16.312z"/>
	<path fill-rule="evenodd" clip-rule="evenodd" fill="#FFFFFF" d="M73.423,16.312c0.002,4.55-3.748,8.283-8.34,8.236
		c-4.49-0.049-8.227-3.75-8.158-8.379c0.064-4.503,3.787-8.192,8.383-8.122C69.821,8.119,73.438,11.827,73.423,16.312z
		 M58.992,12.231c0.201,0,0.385,0.006,0.566-0.001c0.607-0.028,1.213-0.058,1.82-0.089c0.234-0.009,0.367,0.096,0.379,0.285
		c0.01,0.176-0.121,0.305-0.333,0.324c-0.259,0.027-0.517,0.049-0.792,0.078c0.898,2.668,1.791,5.326,2.69,8.008
		c0.023-0.042,0.03-0.052,0.035-0.063c0.522-1.568,1.048-3.136,1.565-4.707c0.02-0.06,0.008-0.137-0.012-0.197
		c-0.098-0.284-0.205-0.563-0.308-0.847c-0.267-0.73-0.534-1.466-0.801-2.197c-0.265-0.025-0.517-0.05-0.769-0.078
		c-0.194-0.02-0.299-0.144-0.287-0.322c0.014-0.18,0.132-0.288,0.326-0.283c0.139,0.004,0.276,0.02,0.416,0.024
		c0.578,0.02,1.156,0.054,1.735,0.053c0.577-0.005,1.154-0.051,1.733-0.077c0.224-0.009,0.352,0.094,0.365,0.278
		c0.014,0.177-0.117,0.31-0.326,0.331c-0.262,0.027-0.52,0.051-0.799,0.079c0.893,2.647,1.775,5.278,2.674,7.948
		c0.027-0.073,0.039-0.104,0.051-0.136c0.35-1.163,0.7-2.323,1.049-3.488c0.199-0.666,0.285-1.344,0.123-2.032
		c-0.132-0.56-0.412-1.053-0.698-1.544c-0.19-0.326-0.376-0.667-0.491-1.027c-0.24-0.777,0.209-1.55,0.953-1.708
		c0.091-0.018,0.186-0.022,0.291-0.034C66.794,7.711,61.357,8.475,58.992,12.231z M65.326,16.997C65.312,17,65.296,17,65.285,17.005
		c-0.734,2.13-1.469,4.261-2.208,6.411c1.546,0.432,3.052,0.399,4.548-0.119C66.853,21.186,66.089,19.09,65.326,16.997z
		 M61.933,22.955c-1.181-3.231-2.35-6.436-3.525-9.652C56.86,16.558,58.089,21.128,61.933,22.955z M68.92,22.663
		c1.792-1.063,2.964-2.592,3.458-4.604c0.449-1.821,0.215-3.57-0.658-5.23c-0.014,0.047-0.016,0.091-0.012,0.137
		c0.091,0.91-0.048,1.787-0.345,2.646c-0.695,2.021-1.4,4.04-2.101,6.062C69.147,22.003,69.033,22.331,68.92,22.663z"/>
	<path fill-rule="evenodd" clip-rule="evenodd" fill="#AD2186" d="M58.992,12.231c2.365-3.757,7.803-4.521,11.158-1.423
		c-0.105,0.012-0.2,0.017-0.291,0.034c-0.744,0.158-1.193,0.931-0.953,1.708c0.115,0.36,0.301,0.701,0.491,1.027
		c0.286,0.491,0.566,0.984,0.698,1.544c0.162,0.688,0.076,1.366-0.123,2.032c-0.349,1.165-0.699,2.325-1.049,3.488
		c-0.012,0.031-0.023,0.063-0.051,0.136c-0.898-2.67-1.781-5.301-2.674-7.948c0.279-0.028,0.537-0.052,0.799-0.079
		c0.209-0.021,0.34-0.154,0.326-0.331c-0.014-0.185-0.142-0.287-0.365-0.278c-0.579,0.026-1.156,0.072-1.733,0.077
		c-0.579,0.001-1.157-0.033-1.735-0.053c-0.14-0.005-0.277-0.021-0.416-0.024c-0.194-0.005-0.313,0.104-0.326,0.283
		c-0.012,0.179,0.093,0.303,0.287,0.322c0.252,0.028,0.504,0.053,0.769,0.078c0.267,0.731,0.534,1.467,0.801,2.197
		c0.103,0.283,0.21,0.563,0.308,0.847c0.02,0.061,0.031,0.138,0.012,0.197c-0.518,1.571-1.043,3.139-1.565,4.707
		c-0.005,0.012-0.012,0.021-0.035,0.063c-0.899-2.682-1.792-5.34-2.69-8.008c0.275-0.029,0.533-0.051,0.792-0.078
		c0.212-0.02,0.343-0.148,0.333-0.324c-0.012-0.189-0.145-0.294-0.379-0.285c-0.607,0.031-1.213,0.061-1.82,0.089
		C59.376,12.237,59.193,12.231,58.992,12.231z"/>
	<path fill-rule="evenodd" clip-rule="evenodd" fill="#AD2186" d="M65.326,16.997c0.764,2.093,1.527,4.188,2.299,6.3
		c-1.496,0.519-3.002,0.551-4.548,0.119c0.739-2.15,1.474-4.281,2.208-6.411C65.296,17,65.312,17,65.326,16.997z"/>
	<path fill-rule="evenodd" clip-rule="evenodd" fill="#AD2186" d="M61.933,22.955c-3.844-1.827-5.073-6.397-3.525-9.652
		C59.583,16.52,60.752,19.724,61.933,22.955z"/>
	<path fill-rule="evenodd" clip-rule="evenodd" fill="#AD2186" d="M68.92,22.663c0.112-0.332,0.227-0.66,0.343-0.99
		c0.7-2.021,1.405-4.04,2.101-6.062c0.297-0.858,0.436-1.735,0.345-2.646c-0.004-0.046-0.002-0.09,0.012-0.137
		c0.873,1.66,1.107,3.409,0.658,5.23C71.884,20.071,70.712,21.6,68.92,22.663z"/>
</g>
<path opacity="0.3" d="M10.461,43.741c0-20.008,16.218-36.225,36.224-36.225c3.689,0,7.25,0.556,10.604,1.581
	c-5.14-2.799-11.032-4.39-17.297-4.39c-20.006,0-36.224,16.217-36.224,36.223c0,16.315,10.788,30.108,25.619,34.643
	C18.112,69.434,10.461,57.481,10.461,43.741z"/>
<path fill="#FFFFFF" d="M64.257,31.829L39.269,16.831c-2.509-1.508-5.765-0.694-7.271,1.814l-16.362,27.26
	c-1.506,2.511-0.692,5.765,1.816,7.271l24.988,14.998c2.51,1.508,5.766,0.696,7.271-1.816l16.363-27.26
	C67.58,36.59,66.767,33.336,64.257,31.829z M47.439,64.995c-0.751,1.251-2.385,1.66-3.635,0.908l-24.99-14.999
	c-1.252-0.751-1.659-2.383-0.907-3.636L34.27,20.012c0.752-1.255,2.382-1.664,3.634-0.908l24.989,14.997
	c1.251,0.752,1.66,2.384,0.909,3.636L47.439,64.995z M60.394,35.688L37.678,22.055c-0.629-0.377-1.44-0.175-1.818,0.454
	L23.587,42.953c-0.377,0.627-0.174,1.439,0.454,1.818l22.717,13.636c0.628,0.378,1.44,0.174,1.817-0.454l12.272-20.444
	C61.225,36.88,61.023,36.066,60.394,35.688z M59.712,36.825L50.256,52.58l-1.284-6.227c-0.07-0.376-0.295-0.699-0.621-0.896
	c-0.326-0.194-0.721-0.241-1.082-0.126l-4.971,1.576l-2.866-15.55c-0.068-0.373-0.295-0.701-0.62-0.896
	c-0.326-0.195-0.721-0.243-1.083-0.127l-6.246,2.041l5.513-9.186L59.712,36.825z M30.451,34.097l7.679-2.5l3.14,17.028l0.955,5.516
	l-17.5-10.505L30.451,34.097z M43.738,55.049l-1.197-6.829l5.129-1.627l1.557,7.702l-1.787,2.977L43.738,55.049z"/>
<g>
	<polygon fill="#FFF200" points="52.931,42.601 50.17,41.415 47.587,42.951 47.91,40.034 45.615,38.134 48.574,37.519 
		49.738,34.808 51.246,37.343 54.261,37.568 52.232,39.751 	"/>
</g>
</svg>
